<?xml version="1.0" encoding="UTF-8" standalone="no"?>
<!DOCTYPE svg PUBLIC "-//W3C//DTD SVG 1.1//EN"
 "http://www.w3.org/Graphics/SVG/1.1/DTD/svg11.dtd">
<!-- Generated by graphviz version 2.40.1 (20161225.0304)
 -->
<!-- Title: dependencies Pages: 1 -->
<svg width="504pt" height="284pt"
 viewBox="0.00 0.00 504.00 284.00" xmlns="http://www.w3.org/2000/svg" xmlns:xlink="http://www.w3.org/1999/xlink">
<g id="graph0" class="graph" transform="scale(1 1) rotate(0) translate(4 280)">
<title>dependencies</title>
<polygon fill="#ffffff" stroke="transparent" points="-4,4 -4,-280 500,-280 500,4 -4,4"/>
<text text-anchor="start" x="227.0091" y="-42.4" font-family="sans-serif" font-weight="bold" font-size="14.00" fill="#000000">Legend</text>
<polygon fill="#ffffb3" stroke="transparent" points="14,-10 14,-30 34,-30 34,-10 14,-10"/>
<text text-anchor="start" x="37.629" y="-15.4" font-family="sans-serif" font-size="14.00" fill="#000000"> &#160;Declarations</text>
<polygon fill="#8dd3c7" stroke="transparent" points="127,-10 127,-30 147,-30 147,-10 127,-10"/>
<text text-anchor="start" x="150.7251" y="-15.4" font-family="sans-serif" font-size="14.00" fill="#000000"> &#160;Module</text>
<polygon fill="#80b1d3" stroke="transparent" points="213,-10 213,-30 233,-30 233,-10 213,-10"/>
<text text-anchor="start" x="236.7812" y="-15.4" font-family="sans-serif" font-size="14.00" fill="#000000"> &#160;Bootstrap</text>
<polygon fill="#fdb462" stroke="transparent" points="310,-10 310,-30 330,-30 330,-10 310,-10"/>
<text text-anchor="start" x="333.6732" y="-15.4" font-family="sans-serif" font-size="14.00" fill="#000000"> &#160;Providers</text>
<polygon fill="#fb8072" stroke="transparent" points="406,-10 406,-30 426,-30 426,-10 406,-10"/>
<text text-anchor="start" x="429.7258" y="-15.4" font-family="sans-serif" font-size="14.00" fill="#000000"> &#160;Exports</text>
<g id="clust1" class="cluster">
<title>cluster_LineGraphModule</title>
<polygon fill="none" stroke="#000000" stroke-dasharray="1,5" points="77,-70 77,-268 419,-268 419,-70 77,-70"/>
</g>
<g id="clust2" class="cluster">
<title>cluster_LineGraphModule_declarations</title>
<polygon fill="none" stroke="#000000" points="229,-78 229,-130 411,-130 411,-78 229,-78"/>
</g>
<g id="clust4" class="cluster">
<title>cluster_LineGraphModule_imports</title>
<polygon fill="none" stroke="#000000" points="85,-78 85,-130 221,-130 221,-78 85,-78"/>
</g>
<g id="clust5" class="cluster">
<title>cluster_LineGraphModule_exports</title>
<polygon fill="none" stroke="#000000" points="155,-208 155,-260 341,-260 341,-208 155,-208"/>
</g>
<!-- AppLineGraphComponent -->
<g id="node1" class="node">
<title>AppLineGraphComponent</title>
<polygon fill="#ffffb3" stroke="#000000" points="403.0786,-122 236.9214,-122 236.9214,-86 403.0786,-86 403.0786,-122"/>
<text text-anchor="middle" x="320" y="-99.8" font-family="Times,serif" font-size="14.00" fill="#000000">AppLineGraphComponent</text>
</g>
<!-- LineGraphModule -->
<g id="node2" class="node">
<title>LineGraphModule</title>
<polygon fill="#8dd3c7" stroke="#000000" points="308.1895,-187 305.1895,-191 284.1895,-191 281.1895,-187 187.8105,-187 187.8105,-151 308.1895,-151 308.1895,-187"/>
<text text-anchor="middle" x="248" y="-164.8" font-family="Times,serif" font-size="14.00" fill="#000000">LineGraphModule</text>
</g>
<!-- AppLineGraphComponent&#45;&gt;LineGraphModule -->
<g id="edge1" class="edge">
<title>AppLineGraphComponent&#45;&gt;LineGraphModule</title>
<path fill="none" stroke="#000000" d="M272.5277,-122.1061C272.5277,-122.1061 272.5277,-140.991 272.5277,-140.991"/>
<polygon fill="#000000" stroke="#000000" points="269.0278,-140.9909 272.5277,-150.991 276.0278,-140.991 269.0278,-140.9909"/>
</g>
<!-- AppLineGraphComponent  -->
<g id="node4" class="node">
<title>AppLineGraphComponent </title>
<polygon fill="#fb8072" stroke="#000000" points="332.5791,-252 163.4209,-252 163.4209,-216 332.5791,-216 332.5791,-252"/>
<text text-anchor="middle" x="248" y="-229.8" font-family="Times,serif" font-size="14.00" fill="#000000">AppLineGraphComponent </text>
</g>
<!-- LineGraphModule&#45;&gt;AppLineGraphComponent  -->
<g id="edge3" class="edge">
<title>LineGraphModule&#45;&gt;AppLineGraphComponent </title>
<path fill="none" stroke="#000000" stroke-dasharray="5,2" d="M248,-187.1061C248,-187.1061 248,-205.991 248,-205.991"/>
<polygon fill="#000000" stroke="#000000" points="244.5001,-205.9909 248,-215.991 251.5001,-205.991 244.5001,-205.9909"/>
</g>
<!-- DropdownModule -->
<g id="node3" class="node">
<title>DropdownModule</title>
<polygon fill="#8dd3c7" stroke="#000000" points="212.9244,-122 209.9244,-126 188.9244,-126 185.9244,-122 93.0756,-122 93.0756,-86 212.9244,-86 212.9244,-122"/>
<text text-anchor="middle" x="153" y="-99.8" font-family="Times,serif" font-size="14.00" fill="#000000">DropdownModule</text>
</g>
<!-- DropdownModule&#45;&gt;LineGraphModule -->
<g id="edge2" class="edge">
<title>DropdownModule&#45;&gt;LineGraphModule</title>
<path fill="none" stroke="#000000" d="M200.3086,-122.1061C200.3086,-122.1061 200.3086,-140.991 200.3086,-140.991"/>
<polygon fill="#000000" stroke="#000000" points="196.8086,-140.9909 200.3086,-150.991 203.8086,-140.991 196.8086,-140.9909"/>
</g>
</g>
</svg>
