<?xml version="1.0" encoding="UTF-8" standalone="no"?>
<!DOCTYPE svg PUBLIC "-//W3C//DTD SVG 1.1//EN"
 "http://www.w3.org/Graphics/SVG/1.1/DTD/svg11.dtd">
<!-- Generated by graphviz version 2.40.1 (20161225.0304)
 -->
<!-- Title: dependencies Pages: 1 -->
<svg width="504pt" height="284pt"
 viewBox="0.00 0.00 504.00 284.00" xmlns="http://www.w3.org/2000/svg" xmlns:xlink="http://www.w3.org/1999/xlink">
<g id="graph0" class="graph" transform="scale(1 1) rotate(0) translate(4 280)">
<title>dependencies</title>
<polygon fill="#ffffff" stroke="transparent" points="-4,4 -4,-280 500,-280 500,4 -4,4"/>
<text text-anchor="start" x="227.0091" y="-42.4" font-family="sans-serif" font-weight="bold" font-size="14.00" fill="#000000">Legend</text>
<polygon fill="#ffffb3" stroke="transparent" points="14,-10 14,-30 34,-30 34,-10 14,-10"/>
<text text-anchor="start" x="37.629" y="-15.4" font-family="sans-serif" font-size="14.00" fill="#000000"> &#160;Declarations</text>
<polygon fill="#8dd3c7" stroke="transparent" points="127,-10 127,-30 147,-30 147,-10 127,-10"/>
<text text-anchor="start" x="150.7251" y="-15.4" font-family="sans-serif" font-size="14.00" fill="#000000"> &#160;Module</text>
<polygon fill="#80b1d3" stroke="transparent" points="213,-10 213,-30 233,-30 233,-10 213,-10"/>
<text text-anchor="start" x="236.7812" y="-15.4" font-family="sans-serif" font-size="14.00" fill="#000000"> &#160;Bootstrap</text>
<polygon fill="#fdb462" stroke="transparent" points="310,-10 310,-30 330,-30 330,-10 310,-10"/>
<text text-anchor="start" x="333.6732" y="-15.4" font-family="sans-serif" font-size="14.00" fill="#000000"> &#160;Providers</text>
<polygon fill="#fb8072" stroke="transparent" points="406,-10 406,-30 426,-30 426,-10 406,-10"/>
<text text-anchor="start" x="429.7258" y="-15.4" font-family="sans-serif" font-size="14.00" fill="#000000"> &#160;Exports</text>
<g id="clust1" class="cluster">
<title>cluster_StarModule</title>
<polygon fill="none" stroke="#000000" stroke-dasharray="1,5" points="97,-70 97,-268 399,-268 399,-70 97,-70"/>
</g>
<g id="clust2" class="cluster">
<title>cluster_StarModule_declarations</title>
<polygon fill="none" stroke="#000000" points="108,-78 108,-130 388,-130 388,-78 108,-78"/>
</g>
<g id="clust6" class="cluster">
<title>cluster_StarModule_exports</title>
<polygon fill="none" stroke="#000000" points="105,-208 105,-260 391,-260 391,-208 105,-208"/>
</g>
<!-- StarComponent -->
<g id="node1" class="node">
<title>StarComponent</title>
<polygon fill="#ffffb3" stroke="#000000" points="379.8809,-122 276.1191,-122 276.1191,-86 379.8809,-86 379.8809,-122"/>
<text text-anchor="middle" x="328" y="-99.8" font-family="Times,serif" font-size="14.00" fill="#000000">StarComponent</text>
</g>
<!-- StarModule -->
<g id="node3" class="node">
<title>StarModule</title>
<polygon fill="#8dd3c7" stroke="#000000" points="228.0983,-187 225.0983,-191 204.0983,-191 201.0983,-187 145.9017,-187 145.9017,-151 228.0983,-151 228.0983,-187"/>
<text text-anchor="middle" x="187" y="-164.8" font-family="Times,serif" font-size="14.00" fill="#000000">StarModule</text>
</g>
<!-- StarComponent&#45;&gt;StarModule -->
<g id="edge1" class="edge">
<title>StarComponent&#45;&gt;StarModule</title>
<path fill="none" stroke="#000000" d="M345.3135,-122.0225C345.3135,-139.3734 345.3135,-163 345.3135,-163 345.3135,-163 238.1817,-163 238.1817,-163"/>
<polygon fill="#000000" stroke="#000000" points="238.1818,-159.5001 228.1817,-163 238.1817,-166.5001 238.1818,-159.5001"/>
</g>
<!-- StarRatingComponent -->
<g id="node2" class="node">
<title>StarRatingComponent</title>
<polygon fill="#ffffb3" stroke="#000000" points="257.7134,-122 116.2866,-122 116.2866,-86 257.7134,-86 257.7134,-122"/>
<text text-anchor="middle" x="187" y="-99.8" font-family="Times,serif" font-size="14.00" fill="#000000">StarRatingComponent</text>
</g>
<!-- StarRatingComponent&#45;&gt;StarModule -->
<g id="edge2" class="edge">
<title>StarRatingComponent&#45;&gt;StarModule</title>
<path fill="none" stroke="#000000" d="M187,-122.1061C187,-122.1061 187,-140.991 187,-140.991"/>
<polygon fill="#000000" stroke="#000000" points="183.5001,-140.9909 187,-150.991 190.5001,-140.991 183.5001,-140.9909"/>
</g>
<!-- StarComponent  -->
<g id="node4" class="node">
<title>StarComponent </title>
<polygon fill="#fb8072" stroke="#000000" points="382.8815,-252 275.1185,-252 275.1185,-216 382.8815,-216 382.8815,-252"/>
<text text-anchor="middle" x="329" y="-229.8" font-family="Times,serif" font-size="14.00" fill="#000000">StarComponent </text>
</g>
<!-- StarModule&#45;&gt;StarComponent  -->
<g id="edge3" class="edge">
<title>StarModule&#45;&gt;StarComponent </title>
<path fill="none" stroke="#000000" stroke-dasharray="5,2" d="M228.1858,-175C264.1663,-175 310.6865,-175 310.6865,-175 310.6865,-175 310.6865,-205.9775 310.6865,-205.9775"/>
<polygon fill="#000000" stroke="#000000" points="307.1866,-205.9774 310.6865,-215.9775 314.1866,-205.9775 307.1866,-205.9774"/>
</g>
<!-- StarRatingComponent  -->
<g id="node5" class="node">
<title>StarRatingComponent </title>
<polygon fill="#fb8072" stroke="#000000" points="257.2135,-252 112.7865,-252 112.7865,-216 257.2135,-216 257.2135,-252"/>
<text text-anchor="middle" x="185" y="-229.8" font-family="Times,serif" font-size="14.00" fill="#000000">StarRatingComponent </text>
</g>
<!-- StarModule&#45;&gt;StarRatingComponent  -->
<g id="edge4" class="edge">
<title>StarModule&#45;&gt;StarRatingComponent </title>
<path fill="none" stroke="#000000" stroke-dasharray="5,2" d="M187,-187.1061C187,-187.1061 187,-205.991 187,-205.991"/>
<polygon fill="#000000" stroke="#000000" points="183.5001,-205.9909 187,-215.991 190.5001,-205.991 183.5001,-205.9909"/>
</g>
</g>
</svg>
