<?xml version="1.0" encoding="UTF-8" standalone="no"?>
<!DOCTYPE svg PUBLIC "-//W3C//DTD SVG 1.1//EN"
 "http://www.w3.org/Graphics/SVG/1.1/DTD/svg11.dtd">
<!-- Generated by graphviz version 2.40.1 (20161225.0304)
 -->
<!-- Title: dependencies Pages: 1 -->
<svg width="504pt" height="284pt"
 viewBox="0.00 0.00 504.00 284.00" xmlns="http://www.w3.org/2000/svg" xmlns:xlink="http://www.w3.org/1999/xlink">
<g id="graph0" class="graph" transform="scale(1 1) rotate(0) translate(4 280)">
<title>dependencies</title>
<polygon fill="#ffffff" stroke="transparent" points="-4,4 -4,-280 500,-280 500,4 -4,4"/>
<text text-anchor="start" x="227.0091" y="-42.4" font-family="sans-serif" font-weight="bold" font-size="14.00" fill="#000000">Legend</text>
<polygon fill="#ffffb3" stroke="transparent" points="14,-10 14,-30 34,-30 34,-10 14,-10"/>
<text text-anchor="start" x="37.629" y="-15.4" font-family="sans-serif" font-size="14.00" fill="#000000"> &#160;Declarations</text>
<polygon fill="#8dd3c7" stroke="transparent" points="127,-10 127,-30 147,-30 147,-10 127,-10"/>
<text text-anchor="start" x="150.7251" y="-15.4" font-family="sans-serif" font-size="14.00" fill="#000000"> &#160;Module</text>
<polygon fill="#80b1d3" stroke="transparent" points="213,-10 213,-30 233,-30 233,-10 213,-10"/>
<text text-anchor="start" x="236.7812" y="-15.4" font-family="sans-serif" font-size="14.00" fill="#000000"> &#160;Bootstrap</text>
<polygon fill="#fdb462" stroke="transparent" points="310,-10 310,-30 330,-30 330,-10 310,-10"/>
<text text-anchor="start" x="333.6732" y="-15.4" font-family="sans-serif" font-size="14.00" fill="#000000"> &#160;Providers</text>
<polygon fill="#fb8072" stroke="transparent" points="406,-10 406,-30 426,-30 426,-10 406,-10"/>
<text text-anchor="start" x="429.7258" y="-15.4" font-family="sans-serif" font-size="14.00" fill="#000000"> &#160;Exports</text>
<g id="clust1" class="cluster">
<title>cluster_CircleGraphModule</title>
<polygon fill="none" stroke="#000000" stroke-dasharray="1,5" points="84,-70 84,-268 412,-268 412,-70 84,-70"/>
</g>
<g id="clust2" class="cluster">
<title>cluster_CircleGraphModule_declarations</title>
<polygon fill="none" stroke="#000000" points="214,-78 214,-130 404,-130 404,-78 214,-78"/>
</g>
<g id="clust4" class="cluster">
<title>cluster_CircleGraphModule_imports</title>
<polygon fill="none" stroke="#000000" points="92,-78 92,-130 206,-130 206,-78 92,-78"/>
</g>
<g id="clust5" class="cluster">
<title>cluster_CircleGraphModule_exports</title>
<polygon fill="none" stroke="#000000" points="151,-208 151,-260 345,-260 345,-208 151,-208"/>
</g>
<!-- AppCircleGraphComponent -->
<g id="node1" class="node">
<title>AppCircleGraphComponent</title>
<polygon fill="#ffffb3" stroke="#000000" points="396.1288,-122 221.8712,-122 221.8712,-86 396.1288,-86 396.1288,-122"/>
<text text-anchor="middle" x="309" y="-99.8" font-family="Times,serif" font-size="14.00" fill="#000000">AppCircleGraphComponent</text>
</g>
<!-- CircleGraphModule -->
<g id="node2" class="node">
<title>CircleGraphModule</title>
<polygon fill="#8dd3c7" stroke="#000000" points="312.2395,-187 309.2395,-191 288.2395,-191 285.2395,-187 183.7605,-187 183.7605,-151 312.2395,-151 312.2395,-187"/>
<text text-anchor="middle" x="248" y="-164.8" font-family="Times,serif" font-size="14.00" fill="#000000">CircleGraphModule</text>
</g>
<!-- AppCircleGraphComponent&#45;&gt;CircleGraphModule -->
<g id="edge1" class="edge">
<title>AppCircleGraphComponent&#45;&gt;CircleGraphModule</title>
<path fill="none" stroke="#000000" d="M267.0277,-122.1061C267.0277,-122.1061 267.0277,-140.991 267.0277,-140.991"/>
<polygon fill="#000000" stroke="#000000" points="263.5278,-140.9909 267.0277,-150.991 270.5278,-140.991 263.5278,-140.9909"/>
</g>
<!-- AppCircleGraphComponent  -->
<g id="node4" class="node">
<title>AppCircleGraphComponent </title>
<polygon fill="#fb8072" stroke="#000000" points="337.1284,-252 158.8716,-252 158.8716,-216 337.1284,-216 337.1284,-252"/>
<text text-anchor="middle" x="248" y="-229.8" font-family="Times,serif" font-size="14.00" fill="#000000">AppCircleGraphComponent </text>
</g>
<!-- CircleGraphModule&#45;&gt;AppCircleGraphComponent  -->
<g id="edge3" class="edge">
<title>CircleGraphModule&#45;&gt;AppCircleGraphComponent </title>
<path fill="none" stroke="#000000" stroke-dasharray="5,2" d="M248,-187.1061C248,-187.1061 248,-205.991 248,-205.991"/>
<polygon fill="#000000" stroke="#000000" points="244.5001,-205.9909 248,-215.991 251.5001,-205.991 244.5001,-205.9909"/>
</g>
<!-- ButtonModule -->
<g id="node3" class="node">
<title>ButtonModule</title>
<polygon fill="#8dd3c7" stroke="#000000" points="197.6682,-122 194.6682,-126 173.6682,-126 170.6682,-122 100.3318,-122 100.3318,-86 197.6682,-86 197.6682,-122"/>
<text text-anchor="middle" x="149" y="-99.8" font-family="Times,serif" font-size="14.00" fill="#000000">ButtonModule</text>
</g>
<!-- ButtonModule&#45;&gt;CircleGraphModule -->
<g id="edge2" class="edge">
<title>ButtonModule&#45;&gt;CircleGraphModule</title>
<path fill="none" stroke="#000000" d="M190.7321,-122.1061C190.7321,-122.1061 190.7321,-140.991 190.7321,-140.991"/>
<polygon fill="#000000" stroke="#000000" points="187.2322,-140.9909 190.7321,-150.991 194.2322,-140.991 187.2322,-140.9909"/>
</g>
</g>
</svg>
