<?xml version="1.0" encoding="UTF-8" standalone="no"?>
<!DOCTYPE svg PUBLIC "-//W3C//DTD SVG 1.1//EN"
 "http://www.w3.org/Graphics/SVG/1.1/DTD/svg11.dtd">
<!-- Generated by graphviz version 2.40.1 (20161225.0304)
 -->
<!-- Title: dependencies Pages: 1 -->
<svg width="532pt" height="284pt"
 viewBox="0.00 0.00 532.00 284.00" xmlns="http://www.w3.org/2000/svg" xmlns:xlink="http://www.w3.org/1999/xlink">
<g id="graph0" class="graph" transform="scale(1 1) rotate(0) translate(4 280)">
<title>dependencies</title>
<polygon fill="#ffffff" stroke="transparent" points="-4,4 -4,-280 528,-280 528,4 -4,4"/>
<text text-anchor="start" x="241.0091" y="-42.4" font-family="sans-serif" font-weight="bold" font-size="14.00" fill="#000000">Legend</text>
<polygon fill="#ffffb3" stroke="transparent" points="28,-10 28,-30 48,-30 48,-10 28,-10"/>
<text text-anchor="start" x="51.629" y="-15.4" font-family="sans-serif" font-size="14.00" fill="#000000"> &#160;Declarations</text>
<polygon fill="#8dd3c7" stroke="transparent" points="141,-10 141,-30 161,-30 161,-10 141,-10"/>
<text text-anchor="start" x="164.7251" y="-15.4" font-family="sans-serif" font-size="14.00" fill="#000000"> &#160;Module</text>
<polygon fill="#80b1d3" stroke="transparent" points="227,-10 227,-30 247,-30 247,-10 227,-10"/>
<text text-anchor="start" x="250.7812" y="-15.4" font-family="sans-serif" font-size="14.00" fill="#000000"> &#160;Bootstrap</text>
<polygon fill="#fdb462" stroke="transparent" points="324,-10 324,-30 344,-30 344,-10 324,-10"/>
<text text-anchor="start" x="347.6732" y="-15.4" font-family="sans-serif" font-size="14.00" fill="#000000"> &#160;Providers</text>
<polygon fill="#fb8072" stroke="transparent" points="420,-10 420,-30 440,-30 440,-10 420,-10"/>
<text text-anchor="start" x="443.7258" y="-15.4" font-family="sans-serif" font-size="14.00" fill="#000000"> &#160;Exports</text>
<g id="clust1" class="cluster">
<title>cluster_PipesModule</title>
<polygon fill="none" stroke="#000000" stroke-dasharray="1,5" points="8,-70 8,-268 516,-268 516,-70 8,-70"/>
</g>
<g id="clust2" class="cluster">
<title>cluster_PipesModule_declarations</title>
<polygon fill="none" stroke="#000000" points="25,-78 25,-130 502,-130 502,-78 25,-78"/>
</g>
<g id="clust8" class="cluster">
<title>cluster_PipesModule_exports</title>
<polygon fill="none" stroke="#000000" points="16,-208 16,-260 508,-260 508,-208 16,-208"/>
</g>
<!-- FilterPipe -->
<g id="node1" class="node">
<title>FilterPipe</title>
<polygon fill="#ffffb3" stroke="#000000" points="493.7177,-122 422.2823,-122 422.2823,-86 493.7177,-86 493.7177,-122"/>
<text text-anchor="middle" x="458" y="-99.8" font-family="Times,serif" font-size="14.00" fill="#000000">FilterPipe</text>
</g>
<!-- PipesModule -->
<g id="node5" class="node">
<title>PipesModule</title>
<polygon fill="#8dd3c7" stroke="#000000" points="246.8823,-187 243.8823,-191 222.8823,-191 219.8823,-187 157.1177,-187 157.1177,-151 246.8823,-151 246.8823,-187"/>
<text text-anchor="middle" x="202" y="-164.8" font-family="Times,serif" font-size="14.00" fill="#000000">PipesModule</text>
</g>
<!-- FilterPipe&#45;&gt;PipesModule -->
<g id="edge1" class="edge">
<title>FilterPipe&#45;&gt;PipesModule</title>
<path fill="none" stroke="#000000" d="M470.9529,-122.2667C470.9529,-140.5552 470.9529,-166 470.9529,-166 470.9529,-166 257.0167,-166 257.0167,-166"/>
<polygon fill="#000000" stroke="#000000" points="257.0167,-162.5001 247.0167,-166 257.0166,-169.5001 257.0167,-162.5001"/>
</g>
<!-- GraphToolTipPipe -->
<g id="node2" class="node">
<title>GraphToolTipPipe</title>
<polygon fill="#ffffb3" stroke="#000000" points="404.7562,-122 283.2438,-122 283.2438,-86 404.7562,-86 404.7562,-122"/>
<text text-anchor="middle" x="344" y="-99.8" font-family="Times,serif" font-size="14.00" fill="#000000">GraphToolTipPipe</text>
</g>
<!-- GraphToolTipPipe&#45;&gt;PipesModule -->
<g id="edge2" class="edge">
<title>GraphToolTipPipe&#45;&gt;PipesModule</title>
<path fill="none" stroke="#000000" d="M364.2927,-122.0091C364.2927,-138.0494 364.2927,-159 364.2927,-159 364.2927,-159 257.2076,-159 257.2076,-159"/>
<polygon fill="#000000" stroke="#000000" points="257.2076,-155.5001 247.2076,-159 257.2075,-162.5001 257.2076,-155.5001"/>
</g>
<!-- HighlightSearchPipe -->
<g id="node3" class="node">
<title>HighlightSearchPipe</title>
<polygon fill="#ffffb3" stroke="#000000" points="265.1443,-122 132.8557,-122 132.8557,-86 265.1443,-86 265.1443,-122"/>
<text text-anchor="middle" x="199" y="-99.8" font-family="Times,serif" font-size="14.00" fill="#000000">HighlightSearchPipe</text>
</g>
<!-- HighlightSearchPipe&#45;&gt;PipesModule -->
<g id="edge3" class="edge">
<title>HighlightSearchPipe&#45;&gt;PipesModule</title>
<path fill="none" stroke="#000000" d="M202,-122.1061C202,-122.1061 202,-140.991 202,-140.991"/>
<polygon fill="#000000" stroke="#000000" points="198.5001,-140.9909 202,-150.991 205.5001,-140.991 198.5001,-140.9909"/>
</g>
<!-- SortingPipe -->
<g id="node4" class="node">
<title>SortingPipe</title>
<polygon fill="#ffffb3" stroke="#000000" points="115.1123,-122 32.8877,-122 32.8877,-86 115.1123,-86 115.1123,-122"/>
<text text-anchor="middle" x="74" y="-99.8" font-family="Times,serif" font-size="14.00" fill="#000000">SortingPipe</text>
</g>
<!-- SortingPipe&#45;&gt;PipesModule -->
<g id="edge4" class="edge">
<title>SortingPipe&#45;&gt;PipesModule</title>
<path fill="none" stroke="#000000" d="M84.1854,-122.0225C84.1854,-139.3734 84.1854,-163 84.1854,-163 84.1854,-163 146.7867,-163 146.7867,-163"/>
<polygon fill="#000000" stroke="#000000" points="146.7868,-166.5001 156.7867,-163 146.7867,-159.5001 146.7868,-166.5001"/>
</g>
<!-- FilterPipe  -->
<g id="node6" class="node">
<title>FilterPipe </title>
<polygon fill="#fb8072" stroke="#000000" points="500.2179,-252 425.7821,-252 425.7821,-216 500.2179,-216 500.2179,-252"/>
<text text-anchor="middle" x="463" y="-229.8" font-family="Times,serif" font-size="14.00" fill="#000000">FilterPipe </text>
</g>
<!-- PipesModule&#45;&gt;FilterPipe  -->
<g id="edge5" class="edge">
<title>PipesModule&#45;&gt;FilterPipe </title>
<path fill="none" stroke="#000000" stroke-dasharray="5,2" d="M246.8883,-173C317.9288,-173 448.2971,-173 448.2971,-173 448.2971,-173 448.2971,-205.698 448.2971,-205.698"/>
<polygon fill="#000000" stroke="#000000" points="444.7972,-205.698 448.2971,-215.698 451.7972,-205.698 444.7972,-205.698"/>
</g>
<!-- GraphToolTipPipe  -->
<g id="node7" class="node">
<title>GraphToolTipPipe </title>
<polygon fill="#fb8072" stroke="#000000" points="407.7563,-252 282.2437,-252 282.2437,-216 407.7563,-216 407.7563,-252"/>
<text text-anchor="middle" x="345" y="-229.8" font-family="Times,serif" font-size="14.00" fill="#000000">GraphToolTipPipe </text>
</g>
<!-- PipesModule&#45;&gt;GraphToolTipPipe  -->
<g id="edge6" class="edge">
<title>PipesModule&#45;&gt;GraphToolTipPipe </title>
<path fill="none" stroke="#000000" stroke-dasharray="5,2" d="M246.9735,-180C281.6434,-180 323.7073,-180 323.7073,-180 323.7073,-180 323.7073,-205.7181 323.7073,-205.7181"/>
<polygon fill="#000000" stroke="#000000" points="320.2074,-205.718 323.7073,-215.7181 327.2074,-205.7181 320.2074,-205.718"/>
</g>
<!-- HighlightSearchPipe  -->
<g id="node8" class="node">
<title>HighlightSearchPipe </title>
<polygon fill="#fb8072" stroke="#000000" points="264.1439,-252 127.8561,-252 127.8561,-216 264.1439,-216 264.1439,-252"/>
<text text-anchor="middle" x="196" y="-229.8" font-family="Times,serif" font-size="14.00" fill="#000000">HighlightSearchPipe </text>
</g>
<!-- PipesModule&#45;&gt;HighlightSearchPipe  -->
<g id="edge7" class="edge">
<title>PipesModule&#45;&gt;HighlightSearchPipe </title>
<path fill="none" stroke="#000000" stroke-dasharray="5,2" d="M202,-187.1061C202,-187.1061 202,-205.991 202,-205.991"/>
<polygon fill="#000000" stroke="#000000" points="198.5001,-205.9909 202,-215.991 205.5001,-205.991 198.5001,-205.9909"/>
</g>
<!-- SortingPipe  -->
<g id="node9" class="node">
<title>SortingPipe </title>
<polygon fill="#fb8072" stroke="#000000" points="109.6131,-252 24.3869,-252 24.3869,-216 109.6131,-216 109.6131,-252"/>
<text text-anchor="middle" x="67" y="-229.8" font-family="Times,serif" font-size="14.00" fill="#000000">SortingPipe </text>
</g>
<!-- PipesModule&#45;&gt;SortingPipe  -->
<g id="edge8" class="edge">
<title>PipesModule&#45;&gt;SortingPipe </title>
<path fill="none" stroke="#000000" stroke-dasharray="5,2" d="M157.0097,-175C114.9448,-175 58.5646,-175 58.5646,-175 58.5646,-175 58.5646,-205.9775 58.5646,-205.9775"/>
<polygon fill="#000000" stroke="#000000" points="55.0647,-205.9774 58.5646,-215.9775 62.0647,-205.9775 55.0647,-205.9774"/>
</g>
</g>
</svg>
