<?xml version="1.0" encoding="UTF-8" standalone="no"?>
<!DOCTYPE svg PUBLIC "-//W3C//DTD SVG 1.1//EN"
 "http://www.w3.org/Graphics/SVG/1.1/DTD/svg11.dtd">
<!-- Generated by graphviz version 2.40.1 (20161225.0304)
 -->
<!-- Title: dependencies Pages: 1 -->
<svg width="504pt" height="284pt"
 viewBox="0.00 0.00 504.00 284.00" xmlns="http://www.w3.org/2000/svg" xmlns:xlink="http://www.w3.org/1999/xlink">
<g id="graph0" class="graph" transform="scale(1 1) rotate(0) translate(4 280)">
<title>dependencies</title>
<polygon fill="#ffffff" stroke="transparent" points="-4,4 -4,-280 500,-280 500,4 -4,4"/>
<text text-anchor="start" x="227.0091" y="-42.4" font-family="sans-serif" font-weight="bold" font-size="14.00" fill="#000000">Legend</text>
<polygon fill="#ffffb3" stroke="transparent" points="14,-10 14,-30 34,-30 34,-10 14,-10"/>
<text text-anchor="start" x="37.629" y="-15.4" font-family="sans-serif" font-size="14.00" fill="#000000"> &#160;Declarations</text>
<polygon fill="#8dd3c7" stroke="transparent" points="127,-10 127,-30 147,-30 147,-10 127,-10"/>
<text text-anchor="start" x="150.7251" y="-15.4" font-family="sans-serif" font-size="14.00" fill="#000000"> &#160;Module</text>
<polygon fill="#80b1d3" stroke="transparent" points="213,-10 213,-30 233,-30 233,-10 213,-10"/>
<text text-anchor="start" x="236.7812" y="-15.4" font-family="sans-serif" font-size="14.00" fill="#000000"> &#160;Bootstrap</text>
<polygon fill="#fdb462" stroke="transparent" points="310,-10 310,-30 330,-30 330,-10 310,-10"/>
<text text-anchor="start" x="333.6732" y="-15.4" font-family="sans-serif" font-size="14.00" fill="#000000"> &#160;Providers</text>
<polygon fill="#fb8072" stroke="transparent" points="406,-10 406,-30 426,-30 426,-10 406,-10"/>
<text text-anchor="start" x="429.7258" y="-15.4" font-family="sans-serif" font-size="14.00" fill="#000000"> &#160;Exports</text>
<g id="clust1" class="cluster">
<title>cluster_PanelModule</title>
<polygon fill="none" stroke="#000000" stroke-dasharray="1,5" points="110,-70 110,-268 386,-268 386,-70 110,-70"/>
</g>
<g id="clust2" class="cluster">
<title>cluster_PanelModule_declarations</title>
<polygon fill="none" stroke="#000000" points="226,-78 226,-130 378,-130 378,-78 226,-78"/>
</g>
<g id="clust4" class="cluster">
<title>cluster_PanelModule_imports</title>
<polygon fill="none" stroke="#000000" points="118,-78 118,-130 218,-130 218,-78 118,-78"/>
</g>
<g id="clust5" class="cluster">
<title>cluster_PanelModule_exports</title>
<polygon fill="none" stroke="#000000" points="170,-208 170,-260 326,-260 326,-208 170,-208"/>
</g>
<!-- AppPanelComponent -->
<g id="node1" class="node">
<title>AppPanelComponent</title>
<polygon fill="#ffffb3" stroke="#000000" points="370.0422,-122 233.9578,-122 233.9578,-86 370.0422,-86 370.0422,-122"/>
<text text-anchor="middle" x="302" y="-99.8" font-family="Times,serif" font-size="14.00" fill="#000000">AppPanelComponent</text>
</g>
<!-- PanelModule -->
<g id="node2" class="node">
<title>PanelModule</title>
<polygon fill="#8dd3c7" stroke="#000000" points="293.1529,-187 290.1529,-191 269.1529,-191 266.1529,-187 202.8471,-187 202.8471,-151 293.1529,-151 293.1529,-187"/>
<text text-anchor="middle" x="248" y="-164.8" font-family="Times,serif" font-size="14.00" fill="#000000">PanelModule</text>
</g>
<!-- AppPanelComponent&#45;&gt;PanelModule -->
<g id="edge1" class="edge">
<title>AppPanelComponent&#45;&gt;PanelModule</title>
<path fill="none" stroke="#000000" d="M263.5277,-122.1061C263.5277,-122.1061 263.5277,-140.991 263.5277,-140.991"/>
<polygon fill="#000000" stroke="#000000" points="260.0278,-140.9909 263.5277,-150.991 267.0278,-140.991 260.0278,-140.9909"/>
</g>
<!-- AppPanelComponent  -->
<g id="node4" class="node">
<title>AppPanelComponent </title>
<polygon fill="#fb8072" stroke="#000000" points="318.0414,-252 177.9586,-252 177.9586,-216 318.0414,-216 318.0414,-252"/>
<text text-anchor="middle" x="248" y="-229.8" font-family="Times,serif" font-size="14.00" fill="#000000">AppPanelComponent </text>
</g>
<!-- PanelModule&#45;&gt;AppPanelComponent  -->
<g id="edge3" class="edge">
<title>PanelModule&#45;&gt;AppPanelComponent </title>
<path fill="none" stroke="#000000" stroke-dasharray="5,2" d="M248,-187.1061C248,-187.1061 248,-205.991 248,-205.991"/>
<polygon fill="#000000" stroke="#000000" points="244.5001,-205.9909 248,-215.991 251.5001,-205.991 244.5001,-205.9909"/>
</g>
<!-- PlusModule -->
<g id="node3" class="node">
<title>PlusModule</title>
<polygon fill="#8dd3c7" stroke="#000000" points="209.6683,-122 206.6683,-126 185.6683,-126 182.6683,-122 126.3317,-122 126.3317,-86 209.6683,-86 209.6683,-122"/>
<text text-anchor="middle" x="168" y="-99.8" font-family="Times,serif" font-size="14.00" fill="#000000">PlusModule</text>
</g>
<!-- PlusModule&#45;&gt;PanelModule -->
<g id="edge2" class="edge">
<title>PlusModule&#45;&gt;PanelModule</title>
<path fill="none" stroke="#000000" d="M206.2539,-122.1061C206.2539,-122.1061 206.2539,-140.991 206.2539,-140.991"/>
<polygon fill="#000000" stroke="#000000" points="202.7539,-140.9909 206.2539,-150.991 209.7539,-140.991 202.7539,-140.9909"/>
</g>
</g>
</svg>
