<?xml version="1.0" encoding="UTF-8" standalone="no"?>
<!DOCTYPE svg PUBLIC "-//W3C//DTD SVG 1.1//EN"
 "http://www.w3.org/Graphics/SVG/1.1/DTD/svg11.dtd">
<!-- Generated by graphviz version 2.40.1 (20161225.0304)
 -->
<!-- Title: dependencies Pages: 1 -->
<svg width="3421pt" height="349pt"
 viewBox="0.00 0.00 3421.00 349.00" xmlns="http://www.w3.org/2000/svg" xmlns:xlink="http://www.w3.org/1999/xlink">
<g id="graph0" class="graph" transform="scale(1 1) rotate(0) translate(4 345)">
<title>dependencies</title>
<polygon fill="#ffffff" stroke="transparent" points="-4,4 -4,-345 3417,-345 3417,4 -4,4"/>
<text text-anchor="start" x="1685.5091" y="-42.4" font-family="sans-serif" font-weight="bold" font-size="14.00" fill="#000000">Legend</text>
<polygon fill="#ffffb3" stroke="transparent" points="1472.5,-10 1472.5,-30 1492.5,-30 1492.5,-10 1472.5,-10"/>
<text text-anchor="start" x="1496.129" y="-15.4" font-family="sans-serif" font-size="14.00" fill="#000000"> &#160;Declarations</text>
<polygon fill="#8dd3c7" stroke="transparent" points="1585.5,-10 1585.5,-30 1605.5,-30 1605.5,-10 1585.5,-10"/>
<text text-anchor="start" x="1609.2251" y="-15.4" font-family="sans-serif" font-size="14.00" fill="#000000"> &#160;Module</text>
<polygon fill="#80b1d3" stroke="transparent" points="1671.5,-10 1671.5,-30 1691.5,-30 1691.5,-10 1671.5,-10"/>
<text text-anchor="start" x="1695.2812" y="-15.4" font-family="sans-serif" font-size="14.00" fill="#000000"> &#160;Bootstrap</text>
<polygon fill="#fdb462" stroke="transparent" points="1768.5,-10 1768.5,-30 1788.5,-30 1788.5,-10 1768.5,-10"/>
<text text-anchor="start" x="1792.1732" y="-15.4" font-family="sans-serif" font-size="14.00" fill="#000000"> &#160;Providers</text>
<polygon fill="#fb8072" stroke="transparent" points="1864.5,-10 1864.5,-30 1884.5,-30 1884.5,-10 1864.5,-10"/>
<text text-anchor="start" x="1888.2258" y="-15.4" font-family="sans-serif" font-size="14.00" fill="#000000"> &#160;Exports</text>
<g id="clust1" class="cluster">
<title>cluster_AppModule</title>
<polygon fill="none" stroke="#000000" stroke-dasharray="1,5" points="8,-70 8,-333 3405,-333 3405,-70 8,-70"/>
</g>
<g id="clust2" class="cluster">
<title>cluster_AppModule_declarations</title>
<polygon fill="none" stroke="#000000" points="3089,-143 3089,-195 3397,-195 3397,-143 3089,-143"/>
</g>
<g id="clust3" class="cluster">
<title>cluster_AppModule_AppComponent_providers</title>
<polygon fill="none" stroke="#000000" points="3251,-78 3251,-130 3397,-130 3397,-78 3251,-78"/>
</g>
<g id="clust5" class="cluster">
<title>cluster_AppModule_imports</title>
<polygon fill="none" stroke="#000000" points="154,-143 154,-195 3081,-195 3081,-143 154,-143"/>
</g>
<g id="clust7" class="cluster">
<title>cluster_AppModule_bootstrap</title>
<polygon fill="none" stroke="#000000" points="1535,-273 1535,-325 1659,-325 1659,-273 1535,-273"/>
</g>
<g id="clust8" class="cluster">
<title>cluster_AppModule_providers</title>
<polygon fill="none" stroke="#000000" points="16,-143 16,-195 146,-195 146,-143 16,-143"/>
</g>
<!-- AppComponent -->
<g id="node1" class="node">
<title>AppComponent</title>
<polygon fill="#ffffb3" stroke="#000000" points="3388.9399,-187 3283.0601,-187 3283.0601,-151 3388.9399,-151 3388.9399,-187"/>
<text text-anchor="middle" x="3336" y="-164.8" font-family="Times,serif" font-size="14.00" fill="#000000">AppComponent</text>
</g>
<!-- AppModule -->
<g id="node3" class="node">
<title>AppModule</title>
<polygon fill="#8dd3c7" stroke="#000000" points="1638.6571,-252 1635.6571,-256 1614.6571,-256 1611.6571,-252 1555.3429,-252 1555.3429,-216 1638.6571,-216 1638.6571,-252"/>
<text text-anchor="middle" x="1597" y="-229.8" font-family="Times,serif" font-size="14.00" fill="#000000">AppModule</text>
</g>
<!-- AppComponent&#45;&gt;AppModule -->
<g id="edge1" class="edge">
<title>AppComponent&#45;&gt;AppModule</title>
<path fill="none" stroke="#000000" d="M3336,-187.3802C3336,-211.2785 3336,-250 3336,-250 3336,-250 1648.6973,-250 1648.6973,-250"/>
<polygon fill="#000000" stroke="#000000" points="1648.6973,-246.5001 1638.6973,-250 1648.6973,-253.5001 1648.6973,-246.5001"/>
</g>
<!-- ExampleModalComponent -->
<g id="node2" class="node">
<title>ExampleModalComponent</title>
<polygon fill="#ffffb3" stroke="#000000" points="3264.6456,-187 3097.3544,-187 3097.3544,-151 3264.6456,-151 3264.6456,-187"/>
<text text-anchor="middle" x="3181" y="-164.8" font-family="Times,serif" font-size="14.00" fill="#000000">ExampleModalComponent</text>
</g>
<!-- ExampleModalComponent&#45;&gt;AppModule -->
<g id="edge3" class="edge">
<title>ExampleModalComponent&#45;&gt;AppModule</title>
<path fill="none" stroke="#000000" d="M3181,-187.0908C3181,-210.1328 3181,-247 3181,-247 3181,-247 1648.9602,-247 1648.9602,-247"/>
<polygon fill="#000000" stroke="#000000" points="1648.9602,-243.5001 1638.9602,-247 1648.9601,-250.5001 1648.9602,-243.5001"/>
</g>
<!-- AppComponent  -->
<g id="node28" class="node">
<title>AppComponent </title>
<polygon fill="#80b1d3" stroke="#000000" points="1651.439,-317 1542.561,-317 1542.561,-281 1651.439,-281 1651.439,-317"/>
<text text-anchor="middle" x="1597" y="-294.8" font-family="Times,serif" font-size="14.00" fill="#000000">AppComponent </text>
</g>
<!-- AppModule&#45;&gt;AppComponent  -->
<g id="edge27" class="edge">
<title>AppModule&#45;&gt;AppComponent </title>
<path fill="none" stroke="#000000" stroke-dasharray="1,5" d="M1597,-252.1061C1597,-252.1061 1597,-270.991 1597,-270.991"/>
<polygon fill="#000000" stroke="#000000" points="1593.5001,-270.9909 1597,-280.991 1600.5001,-270.991 1593.5001,-270.9909"/>
</g>
<!-- ModalService -->
<g id="node4" class="node">
<title>ModalService</title>
<ellipse fill="#fdb462" stroke="#000000" cx="3324" cy="-104" rx="65.4072" ry="18"/>
<text text-anchor="middle" x="3324" y="-99.8" font-family="Times,serif" font-size="14.00" fill="#000000">ModalService</text>
</g>
<!-- ModalService&#45;&gt;AppComponent -->
<g id="edge2" class="edge">
<title>ModalService&#45;&gt;AppComponent</title>
<path fill="none" stroke="#000000" d="M3336,-121.7615C3336,-121.7615 3336,-140.8074 3336,-140.8074"/>
<polygon fill="#000000" stroke="#000000" points="3332.5001,-140.8074 3336,-150.8074 3339.5001,-140.8075 3332.5001,-140.8074"/>
</g>
<!-- AccordionModule -->
<g id="node5" class="node">
<title>AccordionModule</title>
<polygon fill="#8dd3c7" stroke="#000000" points="3073.1374,-187 3070.1374,-191 3049.1374,-191 3046.1374,-187 2954.8626,-187 2954.8626,-151 3073.1374,-151 3073.1374,-187"/>
<text text-anchor="middle" x="3014" y="-164.8" font-family="Times,serif" font-size="14.00" fill="#000000">AccordionModule</text>
</g>
<!-- AccordionModule&#45;&gt;AppModule -->
<g id="edge4" class="edge">
<title>AccordionModule&#45;&gt;AppModule</title>
<path fill="none" stroke="#000000" d="M3014,-187.1554C3014,-209.3519 3014,-244 3014,-244 3014,-244 1649.0236,-244 1649.0236,-244"/>
<polygon fill="#000000" stroke="#000000" points="1649.0236,-240.5001 1639.0236,-244 1649.0235,-247.5001 1649.0236,-240.5001"/>
</g>
<!-- AlertModule -->
<g id="node6" class="node">
<title>AlertModule</title>
<polygon fill="#8dd3c7" stroke="#000000" points="2937.3134,-187 2934.3134,-191 2913.3134,-191 2910.3134,-187 2848.6866,-187 2848.6866,-151 2937.3134,-151 2937.3134,-187"/>
<text text-anchor="middle" x="2893" y="-164.8" font-family="Times,serif" font-size="14.00" fill="#000000">AlertModule</text>
</g>
<!-- AlertModule&#45;&gt;AppModule -->
<g id="edge5" class="edge">
<title>AlertModule&#45;&gt;AppModule</title>
<path fill="none" stroke="#000000" d="M2893,-187.1686C2893,-208.498 2893,-241 2893,-241 2893,-241 1649.0172,-241 1649.0172,-241"/>
<polygon fill="#000000" stroke="#000000" points="1649.0172,-237.5001 1639.0172,-241 1649.0171,-244.5001 1649.0172,-237.5001"/>
</g>
<!-- BarGraphModule -->
<g id="node7" class="node">
<title>BarGraphModule</title>
<polygon fill="#8dd3c7" stroke="#000000" points="2830.2437,-187 2827.2437,-191 2806.2437,-191 2803.2437,-187 2715.7563,-187 2715.7563,-151 2830.2437,-151 2830.2437,-187"/>
<text text-anchor="middle" x="2773" y="-164.8" font-family="Times,serif" font-size="14.00" fill="#000000">BarGraphModule</text>
</g>
<!-- BarGraphModule&#45;&gt;AppModule -->
<g id="edge6" class="edge">
<title>BarGraphModule&#45;&gt;AppModule</title>
<path fill="none" stroke="#000000" d="M2773,-187.0267C2773,-207.7672 2773,-239 2773,-239 2773,-239 1648.8545,-239 1648.8545,-239"/>
<polygon fill="#000000" stroke="#000000" points="1648.8545,-235.5001 1638.8545,-239 1648.8544,-242.5001 1648.8545,-235.5001"/>
</g>
<!-- ButtonModule -->
<g id="node8" class="node">
<title>ButtonModule</title>
<polygon fill="#8dd3c7" stroke="#000000" points="2697.6682,-187 2694.6682,-191 2673.6682,-191 2670.6682,-187 2600.3318,-187 2600.3318,-151 2697.6682,-151 2697.6682,-187"/>
<text text-anchor="middle" x="2649" y="-164.8" font-family="Times,serif" font-size="14.00" fill="#000000">ButtonModule</text>
</g>
<!-- ButtonModule&#45;&gt;AppModule -->
<g id="edge7" class="edge">
<title>ButtonModule&#45;&gt;AppModule</title>
<path fill="none" stroke="#000000" d="M2649,-187.308C2649,-207.1455 2649,-236 2649,-236 2649,-236 1648.8888,-236 1648.8888,-236"/>
<polygon fill="#000000" stroke="#000000" points="1648.8889,-232.5001 1638.8888,-236 1648.8888,-239.5001 1648.8889,-232.5001"/>
</g>
<!-- CardClusterModule -->
<g id="node9" class="node">
<title>CardClusterModule</title>
<polygon fill="#8dd3c7" stroke="#000000" points="2582.6994,-187 2579.6994,-191 2558.6994,-191 2555.6994,-187 2455.3006,-187 2455.3006,-151 2582.6994,-151 2582.6994,-187"/>
<text text-anchor="middle" x="2519" y="-164.8" font-family="Times,serif" font-size="14.00" fill="#000000">CardClusterModule</text>
</g>
<!-- CardClusterModule&#45;&gt;AppModule -->
<g id="edge8" class="edge">
<title>CardClusterModule&#45;&gt;AppModule</title>
<path fill="none" stroke="#000000" d="M2519,-187.1686C2519,-206.0898 2519,-233 2519,-233 2519,-233 1648.7094,-233 1648.7094,-233"/>
<polygon fill="#000000" stroke="#000000" points="1648.7095,-229.5001 1638.7094,-233 1648.7094,-236.5001 1648.7095,-229.5001"/>
</g>
<!-- CheckBoxModule -->
<g id="node10" class="node">
<title>CheckBoxModule</title>
<polygon fill="#8dd3c7" stroke="#000000" points="2437.1527,-187 2434.1527,-191 2413.1527,-191 2410.1527,-187 2318.8473,-187 2318.8473,-151 2437.1527,-151 2437.1527,-187"/>
<text text-anchor="middle" x="2378" y="-164.8" font-family="Times,serif" font-size="14.00" fill="#000000">CheckBoxModule</text>
</g>
<!-- CheckBoxModule&#45;&gt;AppModule -->
<g id="edge9" class="edge">
<title>CheckBoxModule&#45;&gt;AppModule</title>
<path fill="none" stroke="#000000" d="M2378,-187.302C2378,-205.2699 2378,-230 2378,-230 2378,-230 1648.7138,-230 1648.7138,-230"/>
<polygon fill="#000000" stroke="#000000" points="1648.7139,-226.5001 1638.7138,-230 1648.7138,-233.5001 1648.7139,-226.5001"/>
</g>
<!-- CircleGraphModule -->
<g id="node11" class="node">
<title>CircleGraphModule</title>
<polygon fill="#8dd3c7" stroke="#000000" points="2300.2395,-187 2297.2395,-191 2276.2395,-191 2273.2395,-187 2171.7605,-187 2171.7605,-151 2300.2395,-151 2300.2395,-187"/>
<text text-anchor="middle" x="2236" y="-164.8" font-family="Times,serif" font-size="14.00" fill="#000000">CircleGraphModule</text>
</g>
<!-- CircleGraphModule&#45;&gt;AppModule -->
<g id="edge10" class="edge">
<title>CircleGraphModule&#45;&gt;AppModule</title>
<path fill="none" stroke="#000000" d="M2236,-187.0225C2236,-204.3734 2236,-228 2236,-228 2236,-228 1648.9266,-228 1648.9266,-228"/>
<polygon fill="#000000" stroke="#000000" points="1648.9266,-224.5001 1638.9266,-228 1648.9265,-231.5001 1648.9266,-224.5001"/>
</g>
<!-- DatePickerModule -->
<g id="node12" class="node">
<title>DatePickerModule</title>
<polygon fill="#8dd3c7" stroke="#000000" points="2153.7395,-187 2150.7395,-191 2129.7395,-191 2126.7395,-187 2032.2605,-187 2032.2605,-151 2153.7395,-151 2153.7395,-187"/>
<text text-anchor="middle" x="2093" y="-164.8" font-family="Times,serif" font-size="14.00" fill="#000000">DatePickerModule</text>
</g>
<!-- DatePickerModule&#45;&gt;AppModule -->
<g id="edge11" class="edge">
<title>DatePickerModule&#45;&gt;AppModule</title>
<path fill="none" stroke="#000000" d="M2093,-187.027C2093,-203.3976 2093,-225 2093,-225 2093,-225 1648.8612,-225 1648.8612,-225"/>
<polygon fill="#000000" stroke="#000000" points="1648.8612,-221.5001 1638.8612,-225 1648.8612,-228.5001 1648.8612,-221.5001"/>
</g>
<!-- DirectiveModule -->
<g id="node13" class="node">
<title>DirectiveModule</title>
<polygon fill="#8dd3c7" stroke="#000000" points="2013.6332,-187 2010.6332,-191 1989.6332,-191 1986.6332,-187 1902.3668,-187 1902.3668,-151 2013.6332,-151 2013.6332,-187"/>
<text text-anchor="middle" x="1958" y="-164.8" font-family="Times,serif" font-size="14.00" fill="#000000">DirectiveModule</text>
</g>
<!-- DirectiveModule&#45;&gt;AppModule -->
<g id="edge12" class="edge">
<title>DirectiveModule&#45;&gt;AppModule</title>
<path fill="none" stroke="#000000" d="M1958,-187.2396C1958,-202.5706 1958,-222 1958,-222 1958,-222 1648.764,-222 1648.764,-222"/>
<polygon fill="#000000" stroke="#000000" points="1648.764,-218.5001 1638.764,-222 1648.7639,-225.5001 1648.764,-218.5001"/>
</g>
<!-- DownloadQueModule -->
<g id="node14" class="node">
<title>DownloadQueModule</title>
<polygon fill="#8dd3c7" stroke="#000000" points="1884.6895,-187 1881.6895,-191 1860.6895,-191 1857.6895,-187 1743.3105,-187 1743.3105,-151 1884.6895,-151 1884.6895,-187"/>
<text text-anchor="middle" x="1814" y="-164.8" font-family="Times,serif" font-size="14.00" fill="#000000">DownloadQueModule</text>
</g>
<!-- DownloadQueModule&#45;&gt;AppModule -->
<g id="edge13" class="edge">
<title>DownloadQueModule&#45;&gt;AppModule</title>
<path fill="none" stroke="#000000" d="M1814,-187.0511C1814,-201.373 1814,-219 1814,-219 1814,-219 1648.8398,-219 1648.8398,-219"/>
<polygon fill="#000000" stroke="#000000" points="1648.8398,-215.5001 1638.8398,-219 1648.8397,-222.5001 1648.8398,-215.5001"/>
</g>
<!-- DropdownModule -->
<g id="node15" class="node">
<title>DropdownModule</title>
<polygon fill="#8dd3c7" stroke="#000000" points="1725.9244,-187 1722.9244,-191 1701.9244,-191 1698.9244,-187 1606.0756,-187 1606.0756,-151 1725.9244,-151 1725.9244,-187"/>
<text text-anchor="middle" x="1666" y="-164.8" font-family="Times,serif" font-size="14.00" fill="#000000">DropdownModule</text>
</g>
<!-- DropdownModule&#45;&gt;AppModule -->
<g id="edge14" class="edge">
<title>DropdownModule&#45;&gt;AppModule</title>
<path fill="none" stroke="#000000" d="M1622.5582,-187.1061C1622.5582,-187.1061 1622.5582,-205.991 1622.5582,-205.991"/>
<polygon fill="#000000" stroke="#000000" points="1619.0583,-205.9909 1622.5582,-215.991 1626.0583,-205.991 1619.0583,-205.9909"/>
</g>
<!-- LineGraphModule -->
<g id="node16" class="node">
<title>LineGraphModule</title>
<polygon fill="#8dd3c7" stroke="#000000" points="1588.1895,-187 1585.1895,-191 1564.1895,-191 1561.1895,-187 1467.8105,-187 1467.8105,-151 1588.1895,-151 1588.1895,-187"/>
<text text-anchor="middle" x="1528" y="-164.8" font-family="Times,serif" font-size="14.00" fill="#000000">LineGraphModule</text>
</g>
<!-- LineGraphModule&#45;&gt;AppModule -->
<g id="edge15" class="edge">
<title>LineGraphModule&#45;&gt;AppModule</title>
<path fill="none" stroke="#000000" d="M1571.6333,-187.1061C1571.6333,-187.1061 1571.6333,-205.991 1571.6333,-205.991"/>
<polygon fill="#000000" stroke="#000000" points="1568.1333,-205.9909 1571.6333,-215.991 1575.1333,-205.991 1568.1333,-205.9909"/>
</g>
<!-- ModalModule -->
<g id="node17" class="node">
<title>ModalModule</title>
<polygon fill="#8dd3c7" stroke="#000000" points="1450.0997,-187 1447.0997,-191 1426.0997,-191 1423.0997,-187 1353.9003,-187 1353.9003,-151 1450.0997,-151 1450.0997,-187"/>
<text text-anchor="middle" x="1402" y="-164.8" font-family="Times,serif" font-size="14.00" fill="#000000">ModalModule</text>
</g>
<!-- ModalModule&#45;&gt;AppModule -->
<g id="edge16" class="edge">
<title>ModalModule&#45;&gt;AppModule</title>
<path fill="none" stroke="#000000" d="M1402,-187.0511C1402,-201.373 1402,-219 1402,-219 1402,-219 1545.1676,-219 1545.1676,-219"/>
<polygon fill="#000000" stroke="#000000" points="1545.1676,-222.5001 1555.1676,-219 1545.1676,-215.5001 1545.1676,-222.5001"/>
</g>
<!-- ModalShellModule -->
<g id="node18" class="node">
<title>ModalShellModule</title>
<polygon fill="#8dd3c7" stroke="#000000" points="1336.3781,-187 1333.3781,-191 1312.3781,-191 1309.3781,-187 1211.6219,-187 1211.6219,-151 1336.3781,-151 1336.3781,-187"/>
<text text-anchor="middle" x="1274" y="-164.8" font-family="Times,serif" font-size="14.00" fill="#000000">ModalShellModule</text>
</g>
<!-- ModalShellModule&#45;&gt;AppModule -->
<g id="edge17" class="edge">
<title>ModalShellModule&#45;&gt;AppModule</title>
<path fill="none" stroke="#000000" d="M1274,-187.2396C1274,-202.5706 1274,-222 1274,-222 1274,-222 1545.1045,-222 1545.1045,-222"/>
<polygon fill="#000000" stroke="#000000" points="1545.1046,-225.5001 1555.1045,-222 1545.1045,-218.5001 1545.1046,-225.5001"/>
</g>
<!-- PagingModule -->
<g id="node19" class="node">
<title>PagingModule</title>
<polygon fill="#8dd3c7" stroke="#000000" points="1193.4386,-187 1190.4386,-191 1169.4386,-191 1166.4386,-187 1094.5614,-187 1094.5614,-151 1193.4386,-151 1193.4386,-187"/>
<text text-anchor="middle" x="1144" y="-164.8" font-family="Times,serif" font-size="14.00" fill="#000000">PagingModule</text>
</g>
<!-- PagingModule&#45;&gt;AppModule -->
<g id="edge18" class="edge">
<title>PagingModule&#45;&gt;AppModule</title>
<path fill="none" stroke="#000000" d="M1144,-187.027C1144,-203.3976 1144,-225 1144,-225 1144,-225 1545.1948,-225 1545.1948,-225"/>
<polygon fill="#000000" stroke="#000000" points="1545.1949,-228.5001 1555.1948,-225 1545.1948,-221.5001 1545.1949,-228.5001"/>
</g>
<!-- PanelModule -->
<g id="node20" class="node">
<title>PanelModule</title>
<polygon fill="#8dd3c7" stroke="#000000" points="1076.1529,-187 1073.1529,-191 1052.1529,-191 1049.1529,-187 985.8471,-187 985.8471,-151 1076.1529,-151 1076.1529,-187"/>
<text text-anchor="middle" x="1031" y="-164.8" font-family="Times,serif" font-size="14.00" fill="#000000">PanelModule</text>
</g>
<!-- PanelModule&#45;&gt;AppModule -->
<g id="edge19" class="edge">
<title>PanelModule&#45;&gt;AppModule</title>
<path fill="none" stroke="#000000" d="M1031,-187.0225C1031,-204.3734 1031,-228 1031,-228 1031,-228 1544.9204,-228 1544.9204,-228"/>
<polygon fill="#000000" stroke="#000000" points="1544.9205,-231.5001 1554.9204,-228 1544.9204,-224.5001 1544.9205,-231.5001"/>
</g>
<!-- PlusModule -->
<g id="node21" class="node">
<title>PlusModule</title>
<polygon fill="#8dd3c7" stroke="#000000" points="967.6683,-187 964.6683,-191 943.6683,-191 940.6683,-187 884.3317,-187 884.3317,-151 967.6683,-151 967.6683,-187"/>
<text text-anchor="middle" x="926" y="-164.8" font-family="Times,serif" font-size="14.00" fill="#000000">PlusModule</text>
</g>
<!-- PlusModule&#45;&gt;AppModule -->
<g id="edge20" class="edge">
<title>PlusModule&#45;&gt;AppModule</title>
<path fill="none" stroke="#000000" d="M926,-187.302C926,-205.2699 926,-230 926,-230 926,-230 1545.2795,-230 1545.2795,-230"/>
<polygon fill="#000000" stroke="#000000" points="1545.2795,-233.5001 1555.2795,-230 1545.2794,-226.5001 1545.2795,-233.5001"/>
</g>
<!-- SearchFieldModule -->
<g id="node22" class="node">
<title>SearchFieldModule</title>
<polygon fill="#8dd3c7" stroke="#000000" points="866.4159,-187 863.4159,-191 842.4159,-191 839.4159,-187 739.5841,-187 739.5841,-151 866.4159,-151 866.4159,-187"/>
<text text-anchor="middle" x="803" y="-164.8" font-family="Times,serif" font-size="14.00" fill="#000000">SearchFieldModule</text>
</g>
<!-- SearchFieldModule&#45;&gt;AppModule -->
<g id="edge21" class="edge">
<title>SearchFieldModule&#45;&gt;AppModule</title>
<path fill="none" stroke="#000000" d="M803,-187.1686C803,-206.0898 803,-233 803,-233 803,-233 1545.1508,-233 1545.1508,-233"/>
<polygon fill="#000000" stroke="#000000" points="1545.1508,-236.5001 1555.1508,-233 1545.1507,-229.5001 1545.1508,-236.5001"/>
</g>
<!-- SpinnerModule -->
<g id="node23" class="node">
<title>SpinnerModule</title>
<polygon fill="#8dd3c7" stroke="#000000" points="721.5982,-187 718.5982,-191 697.5982,-191 694.5982,-187 618.4018,-187 618.4018,-151 721.5982,-151 721.5982,-187"/>
<text text-anchor="middle" x="670" y="-164.8" font-family="Times,serif" font-size="14.00" fill="#000000">SpinnerModule</text>
</g>
<!-- SpinnerModule&#45;&gt;AppModule -->
<g id="edge22" class="edge">
<title>SpinnerModule&#45;&gt;AppModule</title>
<path fill="none" stroke="#000000" d="M670,-187.308C670,-207.1455 670,-236 670,-236 670,-236 1545.0644,-236 1545.0644,-236"/>
<polygon fill="#000000" stroke="#000000" points="1545.0644,-239.5001 1555.0644,-236 1545.0643,-232.5001 1545.0644,-239.5001"/>
</g>
<!-- StarModule -->
<g id="node24" class="node">
<title>StarModule</title>
<polygon fill="#8dd3c7" stroke="#000000" points="600.0983,-187 597.0983,-191 576.0983,-191 573.0983,-187 517.9017,-187 517.9017,-151 600.0983,-151 600.0983,-187"/>
<text text-anchor="middle" x="559" y="-164.8" font-family="Times,serif" font-size="14.00" fill="#000000">StarModule</text>
</g>
<!-- StarModule&#45;&gt;AppModule -->
<g id="edge23" class="edge">
<title>StarModule&#45;&gt;AppModule</title>
<path fill="none" stroke="#000000" d="M559,-187.0267C559,-207.7672 559,-239 559,-239 559,-239 1545.0236,-239 1545.0236,-239"/>
<polygon fill="#000000" stroke="#000000" points="1545.0236,-242.5001 1555.0236,-239 1545.0235,-235.5001 1545.0236,-242.5001"/>
</g>
<!-- TableModule -->
<g id="node25" class="node">
<title>TableModule</title>
<polygon fill="#8dd3c7" stroke="#000000" points="499.9232,-187 496.9232,-191 475.9232,-191 472.9232,-187 408.0768,-187 408.0768,-151 499.9232,-151 499.9232,-187"/>
<text text-anchor="middle" x="454" y="-164.8" font-family="Times,serif" font-size="14.00" fill="#000000">TableModule</text>
</g>
<!-- TableModule&#45;&gt;AppModule -->
<g id="edge24" class="edge">
<title>TableModule&#45;&gt;AppModule</title>
<path fill="none" stroke="#000000" d="M454,-187.1686C454,-208.498 454,-241 454,-241 454,-241 1545.3052,-241 1545.3052,-241"/>
<polygon fill="#000000" stroke="#000000" points="1545.3053,-244.5001 1555.3052,-241 1545.3052,-237.5001 1545.3053,-244.5001"/>
</g>
<!-- TextFieldModule -->
<g id="node26" class="node">
<title>TextFieldModule</title>
<polygon fill="#8dd3c7" stroke="#000000" points="389.986,-187 386.986,-191 365.986,-191 362.986,-187 276.014,-187 276.014,-151 389.986,-151 389.986,-187"/>
<text text-anchor="middle" x="333" y="-164.8" font-family="Times,serif" font-size="14.00" fill="#000000">TextFieldModule</text>
</g>
<!-- TextFieldModule&#45;&gt;AppModule -->
<g id="edge25" class="edge">
<title>TextFieldModule&#45;&gt;AppModule</title>
<path fill="none" stroke="#000000" d="M333,-187.1554C333,-209.3519 333,-244 333,-244 333,-244 1545.3045,-244 1545.3045,-244"/>
<polygon fill="#000000" stroke="#000000" points="1545.3045,-247.5001 1555.3045,-244 1545.3044,-240.5001 1545.3045,-247.5001"/>
</g>
<!-- TicketModule -->
<g id="node27" class="node">
<title>TicketModule</title>
<polygon fill="#8dd3c7" stroke="#000000" points="257.8133,-187 254.8133,-191 233.8133,-191 230.8133,-187 162.1867,-187 162.1867,-151 257.8133,-151 257.8133,-187"/>
<text text-anchor="middle" x="210" y="-164.8" font-family="Times,serif" font-size="14.00" fill="#000000">TicketModule</text>
</g>
<!-- TicketModule&#45;&gt;AppModule -->
<g id="edge26" class="edge">
<title>TicketModule&#45;&gt;AppModule</title>
<path fill="none" stroke="#000000" d="M210,-187.0908C210,-210.1328 210,-247 210,-247 210,-247 1545.112,-247 1545.112,-247"/>
<polygon fill="#000000" stroke="#000000" points="1545.112,-250.5001 1555.112,-247 1545.1119,-243.5001 1545.112,-250.5001"/>
</g>
<!-- AppService -->
<g id="node29" class="node">
<title>AppService</title>
<ellipse fill="#fdb462" stroke="#000000" cx="81" cy="-169" rx="56.7406" ry="18"/>
<text text-anchor="middle" x="81" y="-164.8" font-family="Times,serif" font-size="14.00" fill="#000000">AppService</text>
</g>
<!-- AppService&#45;&gt;AppModule -->
<g id="edge28" class="edge">
<title>AppService&#45;&gt;AppModule</title>
<path fill="none" stroke="#000000" d="M81,-187.3802C81,-211.2785 81,-250 81,-250 81,-250 1545.2687,-250 1545.2687,-250"/>
<polygon fill="#000000" stroke="#000000" points="1545.2687,-253.5001 1555.2687,-250 1545.2687,-246.5001 1545.2687,-253.5001"/>
</g>
</g>
</svg>
