<?xml version="1.0" encoding="UTF-8" standalone="no"?>
<!DOCTYPE svg PUBLIC "-//W3C//DTD SVG 1.1//EN"
 "http://www.w3.org/Graphics/SVG/1.1/DTD/svg11.dtd">
<!-- Generated by graphviz version 2.40.1 (20161225.0304)
 -->
<!-- Title: dependencies Pages: 1 -->
<svg width="1809pt" height="284pt"
 viewBox="0.00 0.00 1809.00 284.00" xmlns="http://www.w3.org/2000/svg" xmlns:xlink="http://www.w3.org/1999/xlink">
<g id="graph0" class="graph" transform="scale(1 1) rotate(0) translate(4 280)">
<title>dependencies</title>
<polygon fill="#ffffff" stroke="transparent" points="-4,4 -4,-280 1805,-280 1805,4 -4,4"/>
<text text-anchor="start" x="879.5091" y="-42.4" font-family="sans-serif" font-weight="bold" font-size="14.00" fill="#000000">Legend</text>
<polygon fill="#ffffb3" stroke="transparent" points="666.5,-10 666.5,-30 686.5,-30 686.5,-10 666.5,-10"/>
<text text-anchor="start" x="690.129" y="-15.4" font-family="sans-serif" font-size="14.00" fill="#000000"> &#160;Declarations</text>
<polygon fill="#8dd3c7" stroke="transparent" points="779.5,-10 779.5,-30 799.5,-30 799.5,-10 779.5,-10"/>
<text text-anchor="start" x="803.2251" y="-15.4" font-family="sans-serif" font-size="14.00" fill="#000000"> &#160;Module</text>
<polygon fill="#80b1d3" stroke="transparent" points="865.5,-10 865.5,-30 885.5,-30 885.5,-10 865.5,-10"/>
<text text-anchor="start" x="889.2812" y="-15.4" font-family="sans-serif" font-size="14.00" fill="#000000"> &#160;Bootstrap</text>
<polygon fill="#fdb462" stroke="transparent" points="962.5,-10 962.5,-30 982.5,-30 982.5,-10 962.5,-10"/>
<text text-anchor="start" x="986.1732" y="-15.4" font-family="sans-serif" font-size="14.00" fill="#000000"> &#160;Providers</text>
<polygon fill="#fb8072" stroke="transparent" points="1058.5,-10 1058.5,-30 1078.5,-30 1078.5,-10 1058.5,-10"/>
<text text-anchor="start" x="1082.2258" y="-15.4" font-family="sans-serif" font-size="14.00" fill="#000000"> &#160;Exports</text>
<g id="clust1" class="cluster">
<title>cluster_TableModule</title>
<polygon fill="none" stroke="#000000" stroke-dasharray="1,5" points="8,-70 8,-268 1793,-268 1793,-70 8,-70"/>
</g>
<g id="clust2" class="cluster">
<title>cluster_TableModule_declarations</title>
<polygon fill="none" stroke="#000000" points="879,-78 879,-130 1785,-130 1785,-78 879,-78"/>
</g>
<g id="clust8" class="cluster">
<title>cluster_TableModule_imports</title>
<polygon fill="none" stroke="#000000" points="16,-78 16,-130 871,-130 871,-78 16,-78"/>
</g>
<g id="clust9" class="cluster">
<title>cluster_TableModule_exports</title>
<polygon fill="none" stroke="#000000" points="272,-208 272,-260 1193,-260 1193,-208 272,-208"/>
</g>
<!-- AppTableComponent -->
<g id="node1" class="node">
<title>AppTableComponent</title>
<polygon fill="#ffffb3" stroke="#000000" points="1776.8118,-122 1639.1882,-122 1639.1882,-86 1776.8118,-86 1776.8118,-122"/>
<text text-anchor="middle" x="1708" y="-99.8" font-family="Times,serif" font-size="14.00" fill="#000000">AppTableComponent</text>
</g>
<!-- TableModule -->
<g id="node6" class="node">
<title>TableModule</title>
<polygon fill="#8dd3c7" stroke="#000000" points="796.9232,-187 793.9232,-191 772.9232,-191 769.9232,-187 705.0768,-187 705.0768,-151 796.9232,-151 796.9232,-187"/>
<text text-anchor="middle" x="751" y="-164.8" font-family="Times,serif" font-size="14.00" fill="#000000">TableModule</text>
</g>
<!-- AppTableComponent&#45;&gt;TableModule -->
<g id="edge1" class="edge">
<title>AppTableComponent&#45;&gt;TableModule</title>
<path fill="none" stroke="#000000" d="M1708,-122.0267C1708,-142.7672 1708,-174 1708,-174 1708,-174 806.8357,-174 806.8357,-174"/>
<polygon fill="#000000" stroke="#000000" points="806.8357,-170.5001 796.8357,-174 806.8357,-177.5001 806.8357,-170.5001"/>
</g>
<!-- AppTableDataComponent -->
<g id="node2" class="node">
<title>AppTableDataComponent</title>
<polygon fill="#ffffb3" stroke="#000000" points="1620.738,-122 1457.262,-122 1457.262,-86 1620.738,-86 1620.738,-122"/>
<text text-anchor="middle" x="1539" y="-99.8" font-family="Times,serif" font-size="14.00" fill="#000000">AppTableDataComponent</text>
</g>
<!-- AppTableDataComponent&#45;&gt;TableModule -->
<g id="edge2" class="edge">
<title>AppTableDataComponent&#45;&gt;TableModule</title>
<path fill="none" stroke="#000000" d="M1539,-122.1061C1539,-141.3391 1539,-169 1539,-169 1539,-169 806.7722,-169 806.7722,-169"/>
<polygon fill="#000000" stroke="#000000" points="806.7723,-165.5001 796.7722,-169 806.7722,-172.5001 806.7723,-165.5001"/>
</g>
<!-- AppTableHeaderComponent -->
<g id="node3" class="node">
<title>AppTableHeaderComponent</title>
<polygon fill="#ffffb3" stroke="#000000" points="1438.7226,-122 1261.2774,-122 1261.2774,-86 1438.7226,-86 1438.7226,-122"/>
<text text-anchor="middle" x="1350" y="-99.8" font-family="Times,serif" font-size="14.00" fill="#000000">AppTableHeaderComponent</text>
</g>
<!-- AppTableHeaderComponent&#45;&gt;TableModule -->
<g id="edge3" class="edge">
<title>AppTableHeaderComponent&#45;&gt;TableModule</title>
<path fill="none" stroke="#000000" d="M1350,-122.302C1350,-140.2699 1350,-165 1350,-165 1350,-165 807.0079,-165 807.0079,-165"/>
<polygon fill="#000000" stroke="#000000" points="807.008,-161.5001 797.0079,-165 807.0079,-168.5001 807.008,-161.5001"/>
</g>
<!-- AppTableModalComponent -->
<g id="node4" class="node">
<title>AppTableModalComponent</title>
<polygon fill="#ffffb3" stroke="#000000" points="1242.8613,-122 1069.1387,-122 1069.1387,-86 1242.8613,-86 1242.8613,-122"/>
<text text-anchor="middle" x="1156" y="-99.8" font-family="Times,serif" font-size="14.00" fill="#000000">AppTableModalComponent</text>
</g>
<!-- AppTableModalComponent&#45;&gt;TableModule -->
<g id="edge4" class="edge">
<title>AppTableModalComponent&#45;&gt;TableModule</title>
<path fill="none" stroke="#000000" d="M1127.2376,-122.027C1127.2376,-138.3976 1127.2376,-160 1127.2376,-160 1127.2376,-160 806.758,-160 806.758,-160"/>
<polygon fill="#000000" stroke="#000000" points="806.758,-156.5001 796.758,-160 806.7579,-163.5001 806.758,-156.5001"/>
</g>
<!-- AppTableRowComponent -->
<g id="node5" class="node">
<title>AppTableRowComponent</title>
<polygon fill="#ffffb3" stroke="#000000" points="1050.7548,-122 887.2452,-122 887.2452,-86 1050.7548,-86 1050.7548,-122"/>
<text text-anchor="middle" x="969" y="-99.8" font-family="Times,serif" font-size="14.00" fill="#000000">AppTableRowComponent</text>
</g>
<!-- AppTableRowComponent&#45;&gt;TableModule -->
<g id="edge5" class="edge">
<title>AppTableRowComponent&#45;&gt;TableModule</title>
<path fill="none" stroke="#000000" d="M956.8708,-122.1871C956.8708,-137.1824 956.8708,-156 956.8708,-156 956.8708,-156 806.9452,-156 806.9452,-156"/>
<polygon fill="#000000" stroke="#000000" points="806.9452,-152.5001 796.9452,-156 806.9452,-159.5001 806.9452,-152.5001"/>
</g>
<!-- AppTableComponent  -->
<g id="node14" class="node">
<title>AppTableComponent </title>
<polygon fill="#fb8072" stroke="#000000" points="1185.3115,-252 1044.6885,-252 1044.6885,-216 1185.3115,-216 1185.3115,-252"/>
<text text-anchor="middle" x="1115" y="-229.8" font-family="Times,serif" font-size="14.00" fill="#000000">AppTableComponent </text>
</g>
<!-- TableModule&#45;&gt;AppTableComponent  -->
<g id="edge13" class="edge">
<title>TableModule&#45;&gt;AppTableComponent </title>
<path fill="none" stroke="#000000" stroke-dasharray="5,2" d="M796.9228,-178C882.9932,-178 1059.9734,-178 1059.9734,-178 1059.9734,-178 1059.9734,-205.973 1059.9734,-205.973"/>
<polygon fill="#000000" stroke="#000000" points="1056.4734,-205.973 1059.9734,-215.973 1063.4734,-205.973 1056.4734,-205.973"/>
</g>
<!-- AppTableDataComponent  -->
<g id="node15" class="node">
<title>AppTableDataComponent </title>
<polygon fill="#fb8072" stroke="#000000" points="1026.738,-252 859.262,-252 859.262,-216 1026.738,-216 1026.738,-252"/>
<text text-anchor="middle" x="943" y="-229.8" font-family="Times,serif" font-size="14.00" fill="#000000">AppTableDataComponent </text>
</g>
<!-- TableModule&#45;&gt;AppTableDataComponent  -->
<g id="edge14" class="edge">
<title>TableModule&#45;&gt;AppTableDataComponent </title>
<path fill="none" stroke="#000000" stroke-dasharray="5,2" d="M796.8127,-183C832.1295,-183 874.9783,-183 874.9783,-183 874.9783,-183 874.9783,-205.8757 874.9783,-205.8757"/>
<polygon fill="#000000" stroke="#000000" points="871.4783,-205.8757 874.9783,-215.8757 878.4783,-205.8757 871.4783,-205.8757"/>
</g>
<!-- AppTableHeaderComponent  -->
<g id="node16" class="node">
<title>AppTableHeaderComponent </title>
<polygon fill="#fb8072" stroke="#000000" points="841.7225,-252 660.2775,-252 660.2775,-216 841.7225,-216 841.7225,-252"/>
<text text-anchor="middle" x="751" y="-229.8" font-family="Times,serif" font-size="14.00" fill="#000000">AppTableHeaderComponent </text>
</g>
<!-- TableModule&#45;&gt;AppTableHeaderComponent  -->
<g id="edge15" class="edge">
<title>TableModule&#45;&gt;AppTableHeaderComponent </title>
<path fill="none" stroke="#000000" stroke-dasharray="5,2" d="M751,-187.1061C751,-187.1061 751,-205.991 751,-205.991"/>
<polygon fill="#000000" stroke="#000000" points="747.5001,-205.9909 751,-215.991 754.5001,-205.991 747.5001,-205.9909"/>
</g>
<!-- AppTableModalComponent  -->
<g id="node17" class="node">
<title>AppTableModalComponent </title>
<polygon fill="#fb8072" stroke="#000000" points="642.8616,-252 465.1384,-252 465.1384,-216 642.8616,-216 642.8616,-252"/>
<text text-anchor="middle" x="554" y="-229.8" font-family="Times,serif" font-size="14.00" fill="#000000">AppTableModalComponent </text>
</g>
<!-- TableModule&#45;&gt;AppTableModalComponent  -->
<g id="edge16" class="edge">
<title>TableModule&#45;&gt;AppTableModalComponent </title>
<path fill="none" stroke="#000000" stroke-dasharray="5,2" d="M705.09,-183C672.9302,-183 635.6773,-183 635.6773,-183 635.6773,-183 635.6773,-205.8757 635.6773,-205.8757"/>
<polygon fill="#000000" stroke="#000000" points="632.1773,-205.8757 635.6773,-215.8757 639.1773,-205.8757 632.1773,-205.8757"/>
</g>
<!-- AppTableRowComponent  -->
<g id="node18" class="node">
<title>AppTableRowComponent </title>
<polygon fill="#fb8072" stroke="#000000" points="447.7548,-252 280.2452,-252 280.2452,-216 447.7548,-216 447.7548,-252"/>
<text text-anchor="middle" x="364" y="-229.8" font-family="Times,serif" font-size="14.00" fill="#000000">AppTableRowComponent </text>
</g>
<!-- TableModule&#45;&gt;AppTableRowComponent  -->
<g id="edge17" class="edge">
<title>TableModule&#45;&gt;AppTableRowComponent </title>
<path fill="none" stroke="#000000" stroke-dasharray="5,2" d="M705.0239,-178C611.9712,-178 410.0942,-178 410.0942,-178 410.0942,-178 410.0942,-205.973 410.0942,-205.973"/>
<polygon fill="#000000" stroke="#000000" points="406.5942,-205.973 410.0942,-215.973 413.5942,-205.973 406.5942,-205.973"/>
</g>
<!-- ButtonModule -->
<g id="node7" class="node">
<title>ButtonModule</title>
<polygon fill="#8dd3c7" stroke="#000000" points="862.6682,-122 859.6682,-126 838.6682,-126 835.6682,-122 765.3318,-122 765.3318,-86 862.6682,-86 862.6682,-122"/>
<text text-anchor="middle" x="814" y="-99.8" font-family="Times,serif" font-size="14.00" fill="#000000">ButtonModule</text>
</g>
<!-- ButtonModule&#45;&gt;TableModule -->
<g id="edge6" class="edge">
<title>ButtonModule&#45;&gt;TableModule</title>
<path fill="none" stroke="#000000" d="M780.9387,-122.1061C780.9387,-122.1061 780.9387,-140.991 780.9387,-140.991"/>
<polygon fill="#000000" stroke="#000000" points="777.4387,-140.9909 780.9387,-150.991 784.4387,-140.991 777.4387,-140.9909"/>
</g>
<!-- CheckBoxModule -->
<g id="node8" class="node">
<title>CheckBoxModule</title>
<polygon fill="#8dd3c7" stroke="#000000" points="747.1527,-122 744.1527,-126 723.1527,-126 720.1527,-122 628.8473,-122 628.8473,-86 747.1527,-86 747.1527,-122"/>
<text text-anchor="middle" x="688" y="-99.8" font-family="Times,serif" font-size="14.00" fill="#000000">CheckBoxModule</text>
</g>
<!-- CheckBoxModule&#45;&gt;TableModule -->
<g id="edge7" class="edge">
<title>CheckBoxModule&#45;&gt;TableModule</title>
<path fill="none" stroke="#000000" d="M726.3075,-122.1061C726.3075,-122.1061 726.3075,-140.991 726.3075,-140.991"/>
<polygon fill="#000000" stroke="#000000" points="722.8076,-140.9909 726.3075,-150.991 729.8076,-140.991 722.8076,-140.9909"/>
</g>
<!-- ModalModule -->
<g id="node9" class="node">
<title>ModalModule</title>
<polygon fill="#8dd3c7" stroke="#000000" points="611.0997,-122 608.0997,-126 587.0997,-126 584.0997,-122 514.9003,-122 514.9003,-86 611.0997,-86 611.0997,-122"/>
<text text-anchor="middle" x="563" y="-99.8" font-family="Times,serif" font-size="14.00" fill="#000000">ModalModule</text>
</g>
<!-- ModalModule&#45;&gt;TableModule -->
<g id="edge8" class="edge">
<title>ModalModule&#45;&gt;TableModule</title>
<path fill="none" stroke="#000000" d="M563,-122.1871C563,-137.1824 563,-156 563,-156 563,-156 695.01,-156 695.01,-156"/>
<polygon fill="#000000" stroke="#000000" points="695.0101,-159.5001 705.01,-156 695.01,-152.5001 695.0101,-159.5001"/>
</g>
<!-- ModalShellModule -->
<g id="node10" class="node">
<title>ModalShellModule</title>
<polygon fill="#8dd3c7" stroke="#000000" points="497.3781,-122 494.3781,-126 473.3781,-126 470.3781,-122 372.6219,-122 372.6219,-86 497.3781,-86 497.3781,-122"/>
<text text-anchor="middle" x="435" y="-99.8" font-family="Times,serif" font-size="14.00" fill="#000000">ModalShellModule</text>
</g>
<!-- ModalShellModule&#45;&gt;TableModule -->
<g id="edge9" class="edge">
<title>ModalShellModule&#45;&gt;TableModule</title>
<path fill="none" stroke="#000000" d="M481.3792,-122.027C481.3792,-138.3976 481.3792,-160 481.3792,-160 481.3792,-160 695.2625,-160 695.2625,-160"/>
<polygon fill="#000000" stroke="#000000" points="695.2625,-163.5001 705.2625,-160 695.2625,-156.5001 695.2625,-163.5001"/>
</g>
<!-- PagingModule -->
<g id="node11" class="node">
<title>PagingModule</title>
<polygon fill="#8dd3c7" stroke="#000000" points="354.4386,-122 351.4386,-126 330.4386,-126 327.4386,-122 255.5614,-122 255.5614,-86 354.4386,-86 354.4386,-122"/>
<text text-anchor="middle" x="305" y="-99.8" font-family="Times,serif" font-size="14.00" fill="#000000">PagingModule</text>
</g>
<!-- PagingModule&#45;&gt;TableModule -->
<g id="edge10" class="edge">
<title>PagingModule&#45;&gt;TableModule</title>
<path fill="none" stroke="#000000" d="M317.2958,-122.302C317.2958,-140.2699 317.2958,-165 317.2958,-165 317.2958,-165 694.9966,-165 694.9966,-165"/>
<polygon fill="#000000" stroke="#000000" points="694.9967,-168.5001 704.9966,-165 694.9966,-161.5001 694.9967,-168.5001"/>
</g>
<!-- StarModule -->
<g id="node12" class="node">
<title>StarModule</title>
<polygon fill="#8dd3c7" stroke="#000000" points="238.0983,-122 235.0983,-126 214.0983,-126 211.0983,-122 155.9017,-122 155.9017,-86 238.0983,-86 238.0983,-122"/>
<text text-anchor="middle" x="197" y="-99.8" font-family="Times,serif" font-size="14.00" fill="#000000">StarModule</text>
</g>
<!-- StarModule&#45;&gt;TableModule -->
<g id="edge11" class="edge">
<title>StarModule&#45;&gt;TableModule</title>
<path fill="none" stroke="#000000" d="M197,-122.1061C197,-141.3391 197,-169 197,-169 197,-169 695.1925,-169 695.1925,-169"/>
<polygon fill="#000000" stroke="#000000" points="695.1926,-172.5001 705.1925,-169 695.1925,-165.5001 695.1926,-172.5001"/>
</g>
<!-- TextFieldModule -->
<g id="node13" class="node">
<title>TextFieldModule</title>
<polygon fill="#8dd3c7" stroke="#000000" points="137.986,-122 134.986,-126 113.986,-126 110.986,-122 24.014,-122 24.014,-86 137.986,-86 137.986,-122"/>
<text text-anchor="middle" x="81" y="-99.8" font-family="Times,serif" font-size="14.00" fill="#000000">TextFieldModule</text>
</g>
<!-- TextFieldModule&#45;&gt;TableModule -->
<g id="edge12" class="edge">
<title>TextFieldModule&#45;&gt;TableModule</title>
<path fill="none" stroke="#000000" d="M81,-122.0267C81,-142.7672 81,-174 81,-174 81,-174 695.2119,-174 695.2119,-174"/>
<polygon fill="#000000" stroke="#000000" points="695.2119,-177.5001 705.2119,-174 695.2118,-170.5001 695.2119,-177.5001"/>
</g>
</g>
</svg>
